<?xml version="1.0" standalone="no"?>
<!DOCTYPE svg PUBLIC "-//W3C//DTD SVG 20010904//EN"
 "http://www.w3.org/TR/2001/REC-SVG-20010904/DTD/svg10.dtd">
<svg version="1.0" xmlns="http://www.w3.org/2000/svg"
 width="998.000000pt" height="998.000000pt" viewBox="0 0 998.000000 998.000000"
 preserveAspectRatio="xMidYMid meet">
<metadata>
Created by potrace 1.14, written by Peter Selinger 2001-2017
</metadata>
<g transform="translate(0.000000,998.000000) scale(0.100000,-0.100000)"
fill="#000000" stroke="none">
<path d="M4748 9974 c-2 -2 -37 -6 -78 -9 -41 -2 -86 -7 -100 -9 -14 -3 -47
-7 -75 -10 -27 -3 -75 -10 -105 -16 -30 -6 -71 -13 -90 -16 -109 -17 -463
-117 -489 -138 -8 -6 -15 -9 -15 -7 -2 7 -106 -30 -174 -60 -34 -16 -65 -29
-68 -29 -9 0 -278 -132 -284 -139 -3 -3 -30 -19 -60 -35 -30 -16 -66 -37 -80
-46 -14 -9 -63 -41 -110 -71 -46 -30 -91 -60 -100 -67 -8 -7 -58 -45 -110 -85
-146 -110 -211 -167 -370 -328 -118 -119 -153 -157 -205 -224 -16 -21 -35 -43
-40 -49 -6 -6 -34 -42 -63 -81 -28 -38 -56 -76 -62 -82 -16 -19 -153 -232
-182 -283 -32 -55 -188 -367 -188 -375 0 -3 -9 -24 -19 -48 -11 -23 -30 -71
-42 -107 -12 -36 -27 -71 -32 -77 -5 -7 -7 -13 -3 -13 3 0 -3 -22 -14 -50 -11
-27 -17 -50 -14 -50 4 0 2 -6 -3 -12 -6 -7 -18 -44 -28 -83 -9 -38 -21 -81
-26 -95 -8 -24 -17 -62 -24 -105 -2 -11 -4 -20 -5 -20 -6 0 -44 -233 -56 -341
-3 -27 -8 -65 -11 -84 -4 -19 -8 -1442 -10 -3162 -3 -2985 -3 -3127 14 -3132
10 -3 34 -8 53 -11 19 -3 42 -8 51 -11 10 -2 30 -7 45 -9 16 -3 52 -10 79 -16
28 -6 59 -12 70 -14 11 -2 56 -11 100 -20 44 -9 91 -19 105 -21 14 -3 69 -13
122 -24 54 -11 101 -19 105 -18 5 0 15 -1 23 -5 8 -3 44 -10 80 -16 36 -6 76
-13 90 -16 54 -9 86 -15 175 -30 17 -3 46 -8 65 -11 19 -2 58 -9 85 -14 28 -5
72 -12 98 -15 27 -4 59 -8 70 -11 12 -2 40 -7 62 -9 22 -3 51 -7 65 -10 36 -7
110 -17 145 -20 17 -1 44 -5 60 -8 32 -7 103 -16 170 -22 22 -2 63 -6 90 -10
98 -12 131 -15 195 -21 36 -3 81 -7 100 -10 35 -4 109 -11 210 -19 30 -2 55
-4 55 -5 0 0 41 -3 90 -6 50 -3 119 -7 155 -9 371 -23 1018 -23 1400 0 120 7
245 16 305 21 33 3 80 7 105 9 25 2 45 4 45 5 0 0 27 3 60 5 33 2 85 6 115 10
54 6 126 13 205 20 22 2 40 4 40 5 0 1 11 3 25 4 14 2 52 6 85 11 33 4 74 9
90 10 17 2 44 6 60 9 17 3 53 8 80 11 76 9 119 15 140 19 11 2 43 7 70 10 93
13 120 17 170 26 28 5 68 12 90 15 77 11 166 25 200 31 11 3 61 11 110 19 93
15 102 17 170 30 22 4 49 9 60 11 18 2 82 14 155 28 14 3 34 7 45 9 11 3 42 8
69 11 27 4 53 9 56 11 4 3 22 7 41 9 41 6 65 11 189 36 52 11 106 21 120 23
l25 4 -1 3109 c0 1710 -3 3136 -6 3169 -4 33 -9 78 -13 100 -3 22 -8 58 -10
79 -8 74 -15 116 -35 211 -6 28 -12 60 -15 73 -2 13 -6 31 -9 40 -3 9 -7 28
-10 42 -2 14 -9 37 -14 51 -6 15 -8 30 -5 33 4 3 2 6 -3 6 -5 0 -10 8 -11 18
-2 22 -9 47 -48 172 -2 7 -13 37 -37 100 -79 213 -200 463 -305 628 -18 29
-33 56 -33 61 0 5 -3 11 -7 13 -5 2 -21 23 -38 48 -36 56 -194 269 -215 291
-8 8 -33 37 -55 64 -103 124 -340 349 -515 488 -57 46 -306 217 -315 217 -2 0
-24 14 -48 30 -25 17 -48 30 -51 30 -4 0 -24 11 -46 25 -22 14 -46 25 -55 25
-8 0 -15 4 -15 8 0 7 -93 54 -230 115 -73 32 -299 118 -325 123 -11 2 -31 8
-45 13 -35 14 -169 52 -200 58 -14 2 -43 9 -65 15 -22 5 -51 12 -65 15 -14 2
-36 6 -50 9 -24 5 -50 9 -115 19 -16 3 -64 9 -105 15 -41 5 -95 12 -120 16
-49 6 -576 14 -582 8z"/>
</g>
</svg>
